<?xml version="1.0" encoding="UTF-8"?>
<svg xmlns="http://www.w3.org/2000/svg" xmlns:xlink="http://www.w3.org/1999/xlink" width="512" height="512" viewBox="0 0 60 60" version="1.1"><!-- Generator: Sketch 51.3 (57544) - http://www.bohemiancoding.com/sketch --><title>010 - Jigsaw</title><desc>Created with Sketch.</desc><defs/><g id="Page-1" stroke="none" stroke-width="1" fill="none" fill-rule="evenodd"><g id="010---Jigsaw" transform="translate(-1.000000, 0.000000)" fill="#000000" fill-rule="nonzero"><path d="M52.127,8.9 C52.12,8.893 52.111,8.891 52.104,8.885 C40.4649981,-2.77960203 21.5811312,-2.82433251 9.887,8.785 C9.876,8.795 9.863,8.798 9.853,8.808 C9.843,8.818 9.842,8.827 9.835,8.835 C4.19149822,14.4347949 1.01125368,22.0520753 0.997554422,30.0023349 C0.983855167,37.9525945 4.13782992,45.5807896 9.762,51.2 C9.775,51.215 9.779,51.233 9.793,51.247 C9.807,51.261 9.83,51.268 9.846,51.282 C15.4642177,56.8804382 23.0770732,60.0165506 31.0084414,59.9998581 C38.9398096,59.9831656 46.5393971,56.8150369 52.134,51.193 C52.15,51.178 52.172,51.173 52.188,51.157 C52.204,51.141 52.215,51.11 52.233,51.089 C63.8086312,39.4059581 63.7693042,20.5656147 52.145,8.931 C52.1396986,8.92027653 52.1336851,8.90992003 52.127,8.9 Z M49.986,9.627 L45.41,14.207 C43.9978099,15.6460865 43.9978099,17.9509135 45.41,19.39 C45.416,19.396 45.482,19.46 45.487,19.466 C45.991068,19.9629271 46.7028966,20.1879304 47.401,20.071 C48.6040956,19.89948 49.8245567,20.2331885 50.773,20.993 C50.8227357,21.055901 50.8798066,21.1126362 50.943,21.162 C50.968,21.188 50.994,21.214 51.022,21.239 C51.0795225,21.2896935 51.1339535,21.3437906 51.185,21.401 C51.301,21.534 51.418,21.675 51.567,21.88 C51.6353668,21.9634998 51.6962675,22.0528431 51.749,22.147 C52.5673638,23.5111682 52.5584972,25.2174106 51.726,26.573 C51.0761052,27.6538162 49.9878406,28.3981201 48.7449249,28.6118663 C47.5020092,28.8256124 46.22762,28.4876178 45.254,27.686 L45.111,27.556 C45.035,27.488 44.957,27.418 44.88,27.341 C44.7954945,27.2572064 44.7172825,27.167296 44.646,27.072 C44.4936698,26.8978618 44.3596328,26.7085346 44.246,26.507 C43.7814844,25.6636549 43.6032213,24.6923312 43.738,23.739 C43.8573179,23.0605241 43.6472408,22.3657108 43.172,21.867 L43.055,21.75 C41.6149449,20.3325683 39.3040551,20.3325683 37.864,21.75 L31.03,28.586 L24.2,21.753 C23.5493253,21.1020526 23.5493253,20.0469474 24.2,19.396 L24.342,19.279 C24.3835843,19.2622103 24.4293491,19.2587168 24.473,19.269 C26.4170454,19.5638575 28.3872034,18.9333935 29.798894,17.5646776 C31.2105847,16.1959617 31.9016356,14.2462294 31.667,12.294 C31.4375122,10.355998 30.3317878,8.63033089 28.667,7.612 C26.5799229,6.33477808 23.9426529,6.37907154 21.8996432,7.72565907 C19.8566335,9.0722466 18.7761217,11.4784156 19.127,13.9 C19.1368404,13.9569549 19.1337647,14.0153927 19.118,14.071 C19.090485,14.1210251 19.0542483,14.1657284 19.011,14.203 C19.001,14.212 18.948,14.269 18.939,14.279 C18.9639584,14.252722 18.9914219,14.2289426 19.021,14.208 C18.9895149,14.2314665 18.9606783,14.2582912 18.935,14.288 L18.835,14.361 L18.714,14.447 C18.6352137,14.4995824 18.5502378,14.5422383 18.461,14.574 C18.0484497,14.7369377 17.5886936,14.7329928 17.179,14.563 C17.0889753,14.5286293 17.0033708,14.483645 16.924,14.429 C16.914,14.423 16.839,14.367 16.829,14.361 L16.784,14.328 C16.7745536,14.319024 16.7645323,14.3106729 16.754,14.303 L16.654,14.203 L12,9.541 C22.7263279,-0.399761162 39.3113652,-0.360908057 49.991,9.63 L49.986,9.627 Z M10.577,10.952 L15.249,15.623 L16,14.96 L15.343,15.717 C15.733,16.107 15.706,16.862 16.101,16.469 C16.1466667,16.4270403 16.1839887,16.3768252 16.211,16.321 C16.2901744,16.3586076 16.3712884,16.3919878 16.454,16.421 C17.3311685,16.7755018 18.3110104,16.7794398 19.191,16.432 C19.416359,16.3500658 19.6304037,16.2398513 19.828,16.104 C19.908,16.054 19.983,15.998 20.128,15.893 C20.1873771,15.8472251 20.2441334,15.7981476 20.298,15.746 C20.3456232,15.7043911 20.3903911,15.6596232 20.432,15.612 C20.442,15.603 20.521,15.523 20.532,15.512 C20.7290544,15.3023489 20.8847787,15.0573969 20.991,14.79 C21.1295193,14.4165113 21.1724881,14.0143228 21.116,13.62 C20.8622706,11.8876981 21.6794316,10.1735952 23.185,9.28 C24.5510858,8.45948067 26.2605018,8.46834973 27.618,9.303 C28.7592131,9.99223835 29.5207324,11.1673436 29.6836693,12.4905474 C29.8466062,13.8137513 29.3929139,15.1384955 28.453,16.084 C27.4992798,17.0492591 26.1419669,17.5010774 24.8,17.3 C24.4298979,17.2317535 24.0482563,17.264219 23.695,17.394 C23.5451495,17.4392563 23.4029097,17.5066686 23.273,17.594 C23.1308977,17.6767454 23.0001384,17.7775881 22.884,17.894 L22.784,17.994 C21.3532277,19.4258326 21.3532277,21.7461674 22.784,23.178 L29.616,30 L22.783,36.833 C22.1326251,37.4822282 21.0793749,37.4822282 20.429,36.833 L20.329,36.733 C20.3008299,36.685466 20.2908799,36.6293196 20.301,36.575 C20.5980724,34.6315378 19.9708254,32.6608083 18.6050666,31.2465946 C17.2393078,29.832381 15.2916345,29.1368365 13.339,29.366 C11.3965118,29.5916912 9.6656362,30.6979176 8.645,32.366 C7.36761152,34.4587035 7.41671986,37.1015826 8.77097037,39.1453866 C10.1252209,41.1891906 12.5399041,42.2646097 14.965,41.904 C15.0578774,41.8877405 15.1526096,41.9201985 15.216,41.99 L15.243,42.01 C15.5581663,42.323608 15.7353564,42.7498881 15.7353564,43.1945 C15.7353564,43.6391119 15.5581663,44.065392 15.243,44.379 L10.523,49.1 C0.471667103,38.3608623 0.495306483,21.6596409 10.577,10.949 L10.577,10.952 Z M11.938,50.516 L16.66,45.793 C18.0883736,44.3309413 18.064671,41.9888511 16.607,40.556 L16.577,40.533 C16.0764111,40.0400804 15.3698893,39.8169683 14.677,39.933 C12.9390378,40.180484 11.2220699,39.3619983 10.32,37.856 C9.50156746,36.4916458 9.51120723,34.7850217 10.345,33.43 C11.0430252,32.2794536 12.231713,31.5141644 13.568,31.355 C14.8822629,31.2015632 16.1941351,31.6606078 17.126,32.6 C18.0916353,33.5667145 18.5349551,34.9379562 18.318,36.287 C18.21263,36.9654172 18.4322515,37.65391 18.911,38.146 L19.011,38.246 C20.4430608,39.676221 22.7629392,39.676221 24.195,38.246 L31.028,31.413 L37.871,38.246 C38.1843893,38.5577037 38.3597964,38.9819946 38.358,39.424 C38.3627347,39.8497695 38.2004732,40.260449 37.906,40.568 L37.747,40.716 C37.6997457,40.7364394 37.6472206,40.7413417 37.597,40.73 C35.0905464,40.3521128 32.6012626,41.5107421 31.2765652,43.6718264 C29.9518679,45.8329107 30.0489255,48.5769106 31.523,50.639 C31.5851884,50.7312682 31.6519379,50.8203787 31.723,50.906 L32.497,50.273 L31.792,50.991 C32.1143938,51.3880196 32.4887539,51.7398441 32.905,52.037 C33.0602433,52.1653561 33.224314,52.2826449 33.396,52.388 C35.3971889,53.6174527 37.9164948,53.6301765 39.93,52.421 C42.1245936,51.1104486 43.3097916,48.6037548 42.93,46.076 C42.9215744,46.0214307 42.9188931,45.9661284 42.922,45.911 L43.053,45.792 C43.608143,45.2310906 44.4819676,45.139858 45.141,45.574 C45.159,45.586 45.224,45.639 45.241,45.649 C45.2662049,45.6710655 45.2925762,45.6917619 45.32,45.711 C45.32,45.711 45.32,45.716 45.336,45.728 L50.036,50.428 C39.3416155,60.4877006 22.6772656,60.5266278 11.936,50.517 L11.938,50.516 Z M51.454,49.01 L46.754,44.31 C46.6772053,44.2302332 46.5939191,44.1569815 46.505,44.091 C46.4258251,44.022126 46.3408418,43.9602286 46.251,43.906 C44.8188178,42.9558304 42.9173712,43.1358884 41.689,44.338 L41.562,44.454 C41.0648625,44.9602643 40.8415855,45.6747507 40.962,46.374 C41.215643,48.1060406 40.3989753,49.819937 38.894,50.714 C37.5256222,51.5347495 35.8140466,51.5251101 34.455,50.689 C34.3416637,50.6181946 34.233097,50.5400266 34.13,50.455 C33.8424757,50.253035 33.5828962,50.0139662 33.358,49.744 L33.276,49.644 C33.2400075,49.600335 33.2066164,49.5545892 33.176,49.507 C32.1534575,48.1028266 32.0737783,46.222057 32.9738936,44.7364297 C33.874009,43.2508024 35.5779743,42.4507115 37.296,42.707 C37.9665952,42.8284407 38.6547869,42.6213512 39.147,42.15 L39.292,42.016 C39.9910777,41.3180506 40.3780592,40.3669711 40.364874,39.3792114 C40.3516888,38.3914518 39.9394585,37.4510406 39.222,36.772 L32.444,30 L39.274,23.17 C39.5875935,22.853663 40.0145676,22.6757143 40.46,22.6757143 C40.9054324,22.6757143 41.3324065,22.853663 41.646,23.17 L42.346,22.46 L41.725,23.253 C41.7614406,23.3058254 41.7731191,23.3718822 41.757,23.434 C41.554743,24.8157678 41.8078296,26.2258217 42.478,27.451 C42.6422486,27.7572734 42.8390535,28.0449371 43.065,28.309 C43.1845584,28.4673703 43.3159338,28.6164629 43.458,28.755 C43.558,28.855 43.658,28.955 43.766,29.043 L43.922,29.185 C45.3362776,30.3772678 47.2012505,30.8913705 49.026671,30.5921654 C50.8520915,30.2929603 52.4553515,29.2103786 53.415,27.629 C54.6409871,25.6405581 54.6594872,23.1353309 53.463,21.129 C53.3698353,20.9641844 53.2627805,20.8076168 53.143,20.661 C52.9974628,20.4569462 52.8408966,20.2609881 52.674,20.074 C52.5860279,19.9738775 52.4925499,19.8787303 52.394,19.789 C52.339196,19.7274653 52.2796828,19.6702924 52.216,19.618 C52.1661842,19.5674599 52.1127055,19.5206661 52.056,19.478 C50.6734926,18.3396526 48.8758255,17.8355218 47.103,18.089 C46.9984363,18.1049709 46.8931894,18.0646959 46.826,17.983 C46.5108337,17.669392 46.3336436,17.2431119 46.3336436,16.7985 C46.3336436,16.3538881 46.5108337,15.927608 46.826,15.614 L51.4,11.044 C61.3653151,21.7292456 61.3893147,38.2959265 51.455,49.01 L51.454,49.01 Z" id="Shape"/></g></g></svg>
