<svg height="503pt" viewBox="0 0 503.69848 503" width="503pt" xmlns="http://www.w3.org/2000/svg"><path d="m358.445312 301.882812-39.535156 47.589844-30.886718-22.746094 5.457031-6.546874 34.074219-41.125 20.648437-8.394532 5.875-2.351562zm0 0" fill="#cfd8dc"/><path d="m350.050781 285.097656-39.535156 47.589844-17.035156-12.507812 34.074219-41.125 20.648437-8.394532zm0 0" fill="#f5f5f5"/><path d="m442.210938 202.085938c-.457032-.335938-.933594-.644532-1.425782-.925782l-52.292968-13.929687c-.921876-.085938-1.761719-.085938-2.601563-.085938-33.574219 0-117.507813 16.789063-134.296875 16.789063-6.789062 0-8.054688-4.148438-7.183594-12.316406h.195313c.835937 0 .492187-.679688 0-1.542969.15625-1.191407.34375-2.441407.558593-3.785157.277344-1.789062.613282-3.753906.976563-5.816406.710937-1.257812 1.148437-2.242187.394531-2.242187 3.21875-16.421875 4.910156-33.105469 5.058594-49.839844.027344-6.695313-.511719-13.386719-1.601562-19.992187.363281-13.859376-3.070313-27.554688-9.929688-39.601563 12.476562-1.175781 24.785156-3.710937 36.714844-7.554687 25.179687-8.390626 75.539062 16.789062 50.359375-25.179688-4.929688-9.652344-12.277344-17.863281-21.320313-23.835938-15.609375-8.730468-30.886718 1.175782-54.222656 7.050782-41.589844 8.125-83.632812 13.730468-125.898438 16.785156-7.136718 0-20.398437 12.171875-8.5625 31.390625 2.414063 3.859375 5.289063 7.410156 8.5625 10.578125 16.617188 16.617188 40.707032 11.246094 54.976563 5.707031 4.195313-1.589843 8.265625-3.5 12.167969-5.707031 4.75 19.253906 7.558594 38.9375 8.394531 58.753906 0 9.902344 1.34375 38.273438 2.351563 72.601563.09375 3.964843-2.546876 7.472656-6.378907 8.476562-48.101562 12.167969-97.445312 18.761719-147.054687 19.640625-54.390625 0-45.324219 28.203125-29.964844 48.011719l.085938.085937c5.445312 8.054688 12.835937 14.605469 21.484374 19.050782 8.394532 0 33.574219-25.179688 75.542969-25.179688 24.160157-1.707031 48-6.53125 70.925781-14.351562l5.789063-1.765625c2.53125-.792969 5.289063-.347657 7.4375 1.207031s3.4375 4.03125 3.476563 6.683594c.769531 30.769531-.464844 61.554687-3.695313 92.160156-4.054687 36.640625-4.304687 73.601562-.753906 110.289062.417969 5.207032.839843 9.738282 1.257812 13.515626.421875 3.734374 3.277344 6.734374 6.988281 7.339843 3.710938.605469 7.371094-1.332031 8.960938-4.738281 4.53125-10.15625 7.804688-31.140625 17.121094-59.257812 3.171875-9.886719 5.503906-20.023438 6.964844-30.300782l1.597656-13.175781c4.445312-43.480469-.167969-91.238281-.167969-116 0-32.3125 62.277344-33.488281 111.882813-33.574219l53.300781 3.359375c30.214843 3.105469 53.042969 5.203125 53.042969-11.75-1.199219-11.765625-8.5-22.03125-19.21875-27.027343zm-200.980469-24.792969c-5.5-3.441407 8.644531-17.671875 8.921875-59.226563.175781 2.25.394531 4.457032.394531 6.824219.066406 17.882813-3.089844 35.632813-9.316406 52.402344zm0 0" fill="#545c60"/><g fill="#37474f"><path d="m188.226562 265.121094c-22.925781 7.820312-46.765624 12.644531-70.925781 14.351562-41.96875 0-67.148437 25.179688-75.542969 25.179688-8.648437-4.445313-16.039062-10.996094-21.484374-19.050782 1.363281 1.113282 2.976562 1.890626 4.699218 2.265626 8.394532 0 33.574219-25.179688 75.539063-25.179688 26.167969-1.984375 51.964843-7.402344 76.71875-16.117188 2.527343-.796874 5.285156-.347656 7.4375 1.207032 2.148437 1.550781 3.4375 4.03125 3.472656 6.683594 0 3.609374.085937 7.050781.085937 10.660156zm0 0"/><path d="m276.777344 61.242188c-16.304688 5.179687-33.261719 8.007812-50.363282 8.394531 0 0 25.179688 8.394531 25.179688 58.753906-.398438 19.460937-2.5625 38.84375-6.460938 57.914063-4.53125.503906 1.738282 5.332031-.527343 5.332031-16.789063 0 5.941406-16.386719 5.941406-66.746094.1875-22.375-8.753906-43.859375-24.761719-59.492187-2.257812-2.230469-3.0625-5.546876-2.082031-8.566407.984375-3.019531 3.585937-5.226562 6.722656-5.703125 10.039063-1.320312 19.933594-3.554687 29.5625-6.671875 25.179688-8.394531 75.542969 16.785157 50.359375-25.179687-1.507812-2.519532-3.019531-4.871094-4.53125-7.050782 9.042969 5.972657 16.390625 14.183594 21.320313 23.835938 25.179687 41.96875-25.179688 16.789062-50.359375 25.179688zm0 0"/><path d="m461.429688 229.113281c0 16.953125-22.828126 14.855469-53.042969 11.75l-53.300781-3.359375c-49.605469.085938-111.882813 1.261719-111.882813 33.574219 0 24.761719 4.613281 72.519531.167969 116l-1.597656 13.175781c-1.460938 10.277344-3.792969 20.414063-6.964844 30.300782-9.316406 28.117187-12.589844 49.101562-17.121094 59.257812-1.589844 3.40625-5.25 5.34375-8.960938 4.738281-3.710937-.605469-6.566406-3.605469-6.988281-7.339843-.417969-3.777344-.839843-8.308594-1.257812-13.515626.167969-.203124.308593-.429687.417969-.667968 4.53125-10.15625 7.804687-31.140625 17.125-59.257813 3.171874-9.886719 5.503906-20.023437 6.964843-30.300781l1.59375-13.179688c4.449219-43.476562-.167969-91.234374-.167969-115.996093 0-32.316407 62.28125-33.492188 111.886719-33.574219l53.296875 3.355469c30.214844 3.109375 53.046875 5.207031 53.046875-11.75-.007812-3.554688-.839843-7.058594-2.433593-10.238281 10.71875 4.996093 18.019531 15.261718 19.21875 27.027343zm0 0"/></g><path d="m495.003906 115.382812c-1.140625 13.789063-6.339844 26.929688-14.9375 37.769532l-121.621094 148.730468-14.773437-10.910156-16.117187-11.917968 106.179687-160.066407c9.734375-13.09375 25.429687-26.855469 39.953125-26.6875 4.476562.054688 8.824219 1.523438 12.421875 4.195313 5.921875 4.421875 9.257813 11.5 8.894531 18.886718zm0 0" fill="#c81e1e"/><path d="m478.21875 106.988281c-1.144531 13.789063-6.339844 26.929688-14.941406 37.769531l-119.605469 146.214844-16.117187-11.917968 106.179687-160.066407c9.734375-13.09375 25.429687-26.855469 39.953125-26.6875 3.101562 4.253907 4.695312 9.421875 4.53125 14.6875zm0 0" fill="#f44335"/><path d="m328.3125 374.988281c-12.632812 22.226563-37.558594 34.472657-62.867188 30.890625-15.386718-2.1875-30.269531-7.042968-43.984374-14.355468 1.460937.355468 2.949218.578124 4.449218.671874 5.578125.316407 11.117188-1.089843 15.863282-4.027343 5.996093-3.738281 10.597656-9.339844 13.09375-15.949219 4.28125-10.824219 3.191406-23.082031 7.21875-33.90625 4.980468-12.714844 16.316406-21.847656 29.796874-24.007812 4.53125-.644532 9.140626-.445313 13.597657.589843 8.664062 1.894531 16.402343 6.726563 21.90625 13.679688 10.390625 13.617187 10.761719 32.394531.925781 46.414062zm0 0" fill="#624421"/><path d="m311.523438 366.597656c-12.628907 22.222656-37.558594 34.46875-62.867188 30.886719-7.753906-.914063-15.382812-2.6875-22.746094-5.289063 5.578125.316407 11.117188-1.089843 15.863282-4.027343 5.996093-3.738281 10.597656-9.339844 13.09375-15.949219 4.28125-10.824219 3.191406-23.082031 7.21875-33.90625 4.980468-12.714844 16.316406-21.847656 29.796874-24.007812 4.53125-.644532 9.140626-.445313 13.597657.589843 1.894531 1.570313 3.609375 3.34375 5.121093 5.285157 10.386719 13.621093 10.761719 32.394531.921876 46.417968zm0 0" fill="#825a2c"/><path d="m311.945312 162.46875c-4.003906 1.492188-8.097656 2.722656-12.253906 3.691406-2.925781.730469-6.019531-.171875-8.089844-2.363281-2.070312-2.195313-2.796874-5.332031-1.898437-8.210937 4.195313-13.847657 8.726563-35.757813 0-47.421876-2.132813-2.980468-2.066406-7.003906.167969-9.90625.375-.585937.824218-1.125 1.339844-1.59375 8.3125-7.554687 24.511718-14.941406 44.066406 14.351563 18.71875 28.117187-2.433594 43.984375-23.332032 51.453125zm0 0" fill="#37474f"/><path d="m160.191406 185.214844c-2.980468 4.480468-6.976562 8.191406-11.667968 10.828125-9.449219 5.074219-20.367188 6.707031-30.886719 4.617187-20.648438-3.441406-28.539063-17.460937-24.507813-37.183594 2.265625-11.082031 6.210938-21.738281 8.140625-32.988281.25-1.425781.503907-2.9375.839844-4.449219.566406-5.496093 3.882813-10.332031 8.8125-12.839843 10.492187-4.363281 18.632813 9.820312 22.324219 17.207031 2.609375 6.570312 6.652344 12.480469 11.835937 17.289062 5.457031 4.027344 13.515625 3.359376 18.886719 6.882813 1.957031 1.296875 3.453125 3.175781 4.28125 5.371094 3.1875 8.226562-3.609375 18.71875-8.058594 25.265625zm0 0" fill="#37474f"/><path d="m311.945312 162.46875c-4.003906 1.492188-8.097656 2.722656-12.253906 3.691406-2.925781.730469-6.019531-.171875-8.089844-2.363281-2.070312-2.195313-2.796874-5.332031-1.898437-8.210937 4.195313-13.847657 8.726563-35.757813 0-47.421876-2.132813-2.980468-2.066406-7.003906.167969-9.90625 7.972656 0 17.792968 4.953126 28.621094 21.152344 13.429687 20.226563 6.292968 34.078125-6.546876 43.058594zm0 0" fill="#545c60"/><path d="m148.523438 196.042969c-9.449219 5.074219-20.367188 6.707031-30.886719 4.617187-20.648438-3.441406-28.539063-17.460937-24.507813-37.183594 2.265625-11.082031 6.210938-21.738281 8.140625-32.988281.25-1.425781.503907-2.9375.839844-4.449219 8.054687.671876 14.433594 11.753907 17.539063 17.964844 2.585937 6.585938 6.601562 12.519532 11.753906 17.375 5.453125 3.941406 25.019531 6.761719 30.390625 10.289063 1.761719 1.175781-1.433594 1.417969-.425781 3.9375 2.769531 7.050781-8.730469 13.890625-12.84375 20.4375zm0 0" fill="#545c60"/><path d="m491.085938 89.765625c-20.691407-15.253906-47.078126 1.207031-64.320313 24.589844l-42.746094 64.453125c-29.058593 1.902344-57.984375 5.433594-86.644531 10.578125-18.878906 2.9375-36.78125 5.730469-44.882812 6.066406.40625-5.113281 1.128906-10.199219 2.167968-15.222656 3.398438-17.074219 5.183594-34.429688 5.328125-51.839844 1.042969-18.257813-3.613281-36.386719-13.328125-51.878906 11.117188-1.394531 22.078125-3.839844 32.734375-7.304688 8.96875-1.773437 18.179688-1.933593 27.203125-.46875 14.175782 1.292969 27.554688 2.519531 33.480469-6.941406 5.558594-8.847656-.175781-20.707031-5.78125-30.054687-23.949219-39.980469-44.519531-33.265626-68.316406-25.476563-5.175781 1.679687-10.53125 3.433594-16.417969 4.910156-40.929688 7.929688-82.289062 13.4375-123.867188 16.492188-8.863281.75-16.515624 6.507812-19.683593 14.816406-3.03125 7.328125-5.28125 22.453125 13.746093 41.480469 21.4375 21.4375 51.621094 12.96875 67.226563 6.3125 3.382813 15.285156 5.347656 30.855468 5.855469 46.507812 0 5.5625.394531 16.222656.933594 30.988282.4375 11.941406.972656 26.289062 1.402343 41.964843-47.433593 12.03125-96.097656 18.53125-145.023437 19.375-12.765625-.808593-25.515625 1.742188-36.988282 7.394531-8.203124 4.414063-13.273437 13.019532-13.164062 22.332032 0 22.855468 30.847656 54.207031 41.757812 54.207031 6.078126-.855469 11.847657-3.207031 16.789063-6.839844 17.519531-11.410156 37.851563-17.757812 58.753906-18.339843 27.050781-1.8125 53.71875-7.386719 79.234375-16.5625.839844 30.351562-.367187 60.722656-3.609375 90.910156-4.410156 41.832031-4.257812 84.019531.453125 125.816406.679688 7.613281 6.484375 13.773438 14.042969 14.910156.910156.144532 1.828125.21875 2.75.214844 6.589844.03125 12.5625-3.871094 15.175781-9.917969 2.9375-7.625 5.289063-15.460937 7.035156-23.445312 2.519532-9.996094 5.707032-22.441407 10.390626-36.601563 2.351562-7.246094 4.238281-14.632812 5.648437-22.117187 5.300781 1.460937 10.710937 2.507812 16.175781 3.128906 2.828125.296875 5.667969.445313 8.511719.445313 25.648437.566406 49.558594-12.917969 62.34375-35.160157 8.324219-12.007812 10.613281-27.195312 6.203125-41.128906.242188-.25.570312-.367187.78125-.660156l22.664062-30.652344 46.882813-57.371094c9.394531.957031 18.03125 1.738281 25.574219 1.738281 9.191406.917969 18.394531-1.570312 25.871094-6.992187 4.269531-3.921875 6.605468-9.515625 6.394531-15.308594-.539063-12.003906-6.757813-23.03125-16.746094-29.707031l33.742187-41.261719c7.503907-9.890625 12.824219-21.257812 15.613282-33.355469 3.671875-12.894531-.8125-26.730468-11.347656-35.023437zm-264.242188 338.152344c-4.878906 14.714843-8.125 27.480469-10.734375 37.773437-1.550781 7.011719-3.566406 13.914063-6.027344 20.664063-4.472656-40.4375-4.652343-81.230469-.539062-121.707031 3.363281-31.039063 4.625-62.273438 3.777343-93.484376-.105468-5.339843-2.726562-10.320312-7.066406-13.429687-4.269531-3.085937-9.757812-3.9375-14.765625-2.292969-23.914062 8.519532-48.867187 13.777344-74.1875 15.636719-23.847656.5625-47.078125 7.679687-67.148437 20.566406-2.785156 1.59375-6.144532 3.515625-7.6875 4.289063-7.203125-4.542969-28.09375-26.542969-25.5-39.125 1.425781-6.929688 13.511718-10.910156 33.164062-10.910156 50.320313-.859376 100.375-7.539063 149.160156-19.910157 7.628907-1.976562 12.882813-8.964843 12.664063-16.84375-.453125-15.621093-.992187-30.007812-1.425781-41.96875-.488282-14.023437-.898438-25.144531-.898438-30.390625-.816406-20.507812-3.710937-40.875-8.644531-60.792968-.648437-2.578126-2.472656-4.695313-4.925781-5.710938-2.453125-1.019531-5.242188-.816406-7.523438.546875-.359375.210937-36.703125 21.460937-56.90625 1.269531-8.453125-8.445312-12.222656-16.628906-10.375-22.453125.660156-2.289062 2.28125-4.183593 4.441406-5.1875 42.949219-3.085937 85.671876-8.777343 127.929688-17.039062 6.472656-1.613281 12.363281-3.535157 17.5625-5.230469 22.375-7.300781 31.609375-10.3125 48.753906 18.199219 2.515625 3.710937 4.402344 7.816406 5.574219 12.144531-5.789063.433594-11.609375.265625-17.367187-.511719-11.3125-1.816406-22.875-1.386719-34.023438 1.257813-15.453125 4.878906-31.511719 7.5625-47.710938 7.964844-4.019531.035156-7.445312 2.933593-8.140624 6.890624-.695313 4 1.523437 7.929688 5.304687 9.402344.839844.308594 19.632813 8.132813 19.632813 50.855469-.152344 16.414063-1.839844 32.78125-5.035157 48.882813-2.613281 14.664062-4.199219 23.503906 1.207031 29.957031 3.070313 3.484375 7.574219 5.363281 12.210938 5.09375 16.21875-1.304688 32.359375-3.425781 48.363281-6.351563 23.890625-3.726562 52.316407-8.132812 72.511719-9.753906l-21.824219 32.902344c-47.789062.117187-115.828125 1.433594-115.828125 41.964844 0 7.371093.386719 16.503906.839844 27.078124 1.707031 27.925782 1.613281 55.929688-.277344 83.84375-3.691406 1.773438-7.867187 2.261719-11.867187 1.382813-4.164063-1.039063-8.441407 1.222656-9.917969 5.253906-1.480469 4.027344.320312 8.519531 4.167969 10.417969 4.105469 2.039062 9.015625 4.347656 14.476562 6.5625-1.289062 7.546875-3.09375 14.992188-5.394531 22.292969zm93.898438-153.707031-22.664063 30.753906c-.152344.199218-.175781.453125-.308594.660156-2.363281-.050781-4.726562.085938-7.070312.414062-16.511719 2.527344-30.410157 13.699219-36.425781 29.285157-.234376.628906-.394532 1.257812-.597657 1.878906-.160156-14.109375-.710937-27.632813-1.222656-39.761719-.445313-10.382812-.839844-19.355468-.839844-26.363281 0-21.730469 50.804688-24.660156 87.871094-25.09375zm.835937 95.800781c-.234375.320312-.449219.65625-.636719 1.007812-10.949218 19.273438-32.640625 29.808594-54.558594 26.492188-6.023437-.683594-11.96875-1.964844-17.742187-3.820313 6.34375-4.667968 11.226563-11.046875 14.066406-18.390625 2.191407-6.203125 3.601563-12.652343 4.199219-19.203125.457031-5.054687 1.480469-10.039062 3.046875-14.867187 3.894531-9.84375 12.6875-16.90625 23.140625-18.589844 11.917969-1.640625 23.667969 3.980469 29.867188 14.289063 6.199218 10.3125 5.65625 23.324218-1.382813 33.082031zm12.339844-48.992188-17.375-12.808593 12.816406-17.40625 8.679687 6.402343 8.6875 6.40625zm119.121093-91.90625c0 2.0625-.570312 2.585938-.839843 2.835938-3.484375 3.148437-14.972657 2.988281-27.363281 2.023437l17.625-21.589844c5.875 3.6875 9.765624 9.839844 10.578124 16.730469zm32.925782-107.578125c-2.246094 9.539063-6.46875 18.503906-12.398438 26.3125l-116.542968 142.503906-18.027344-13.296874 101.5625-153.078126c9.71875-13.195312 28.535156-29.597656 40.605468-20.707031 1.78125 1.351563 7.335938 5.445313 4.800782 18.265625zm0 0"/><path d="m281.644531 153.152344c-1.789062 5.699218-.359375 11.917968 3.734375 16.265625 3.167969 3.433593 7.625 5.382812 12.296875 5.378906 1.316407 0 2.628907-.152344 3.910157-.453125 11.464843-2.644531 39.003906-10.996094 47.078124-31.347656 4.273438-12.511719 1.847657-26.335938-6.429687-36.644532-9.996094-14.992187-20.789063-23.285156-32.078125-24.660156-9.105469-.898437-18.128906 2.328125-24.601562 8.792969-6.488282 5.804687-7.601563 15.546875-2.59375 22.664063 4.867187 6.488281 4.382812 21.4375-1.316407 39.976562zm26.480469-54.800782c6.128906.746094 13.085938 6.714844 20.144531 17.316407 5.003907 5.8125 6.796875 13.730469 4.792969 21.132812-4.195312 10.59375-20.984375 17.886719-35.378906 21.304688v-.042969c5.296875-17.242188 9.359375-40.757812-.839844-55.195312 2.886719-3.128907 7.035156-4.785157 11.28125-4.5zm0 0"/><path d="m116.277344 208.917969c3.535156.597656 7.113281.902343 10.699218.90625 15.902344.59375 31.027344-6.898438 40.1875-19.910157 4.835938-7.152343 13.816407-20.460937 8.898438-33.019531-1.445312-3.800781-4.054688-7.050781-7.453125-9.28125-3.613281-2.167969-7.597656-3.648437-11.75-4.367187-2.390625-.367188-4.703125-1.140625-6.832031-2.289063-3.722656-3.789062-6.671875-8.265625-8.679688-13.179687l-.5625-1.140625c-11.96875-23.945313-24.585937-24.761719-33.070312-21.21875-8.761719 4.707031-14.351563 13.726562-14.671875 23.667969-1.109375 5.808593-2.507813 11.558593-4.195313 17.226562-1.429687 5.136719-2.847656 10.261719-3.914062 15.492188-2.851563 10.816406-1.128906 22.332031 4.769531 31.835937 6.335937 8.582031 15.972656 14.117187 26.574219 15.277344zm-14.925782-43.746094c.992188-4.84375 2.316407-9.601563 3.644532-14.363281 1.679687-6.042969 3.414062-12.296875 4.558594-18.851563.964843-5.570312 1.921874-9.929687 4.589843-11.042969.183594-.078124.378907-.113281.578125-.109374 2.199219 0 6.328125 3.96875 11.011719 13.34375l.554687 1.109374c3.023438 7.414063 7.753907 14.011719 13.808594 19.253907 3.917969 2.585937 8.335938 4.320312 12.96875 5.09375 2.175782.351562 4.289063 1.027343 6.269532 2.007812.511718.324219.894531.820313 1.082031 1.402344 1.679687 4.347656-4.988281 14.265625-7.183594 17.507813-9.59375 14.269531-27.128906 13.015624-34.222656 11.84375-6.074219-.511719-11.675781-3.484376-15.5-8.226563-3.152344-5.804687-3.925781-12.605469-2.160157-18.96875zm0 0"/></svg>